<svg width="148" height="145" viewBox="0 0 148 145" fill="none" xmlns="http://www.w3.org/2000/svg">
<path d="M93.6769 94.6071L78.3227 79.4079L65.4499 88.5584C64.6744 89.0237 63.899 89.3339 62.9684 89.3339C62.1929 89.3339 61.2624 89.0237 60.4869 88.5584L47.6142 79.4079L5.42871 121.438H85.1468C84.9917 120.197 84.9917 119.112 84.9917 117.871C84.9917 109.031 88.2487 100.966 93.6769 94.6071Z" fill="white"/>
<path d="M0 45.7526V114.924L40.4794 74.4449L0 45.7526Z" fill="white"/>
<path d="M29.7781 8.06486H96.1581V56.6091L121.593 38.6183L104.068 27.9168V4.03243C104.068 1.86112 102.207 0 100.035 0H25.9008C23.7295 0 21.8683 1.70603 21.8683 4.03243V27.7617L4.34277 38.4632L29.7781 56.4541V8.06486Z" fill="white"/>
<path d="M100.035 89.0237C105.773 84.8361 112.908 82.5097 120.507 82.5097C122.368 82.5097 124.229 82.6648 126.091 82.975V45.9077L85.4561 74.4449L100.035 89.0237Z" fill="white"/>
<path d="M81.4241 18.9214H43.5813C41.41 18.9214 39.5488 20.6275 39.5488 22.9539C39.5488 25.1252 41.2549 26.9863 43.5813 26.9863H81.4241C83.5954 26.9863 85.4565 25.2803 85.4565 22.9539C85.3014 20.7826 83.5954 18.9214 81.4241 18.9214Z" fill="white"/>
<path d="M81.4241 35.9817H43.5813C41.41 35.9817 39.5488 37.6877 39.5488 40.0141C39.5488 42.1854 41.2549 44.0466 43.5813 44.0466H81.4241C83.5954 44.0466 85.4565 42.3405 85.4565 40.0141C85.3014 37.8428 83.5954 35.9817 81.4241 35.9817Z" fill="white"/>
<path d="M81.4241 53.042H43.5813C41.41 53.042 39.5488 54.748 39.5488 57.0744C39.5488 59.2457 41.2549 61.1069 43.5813 61.1069H81.4241C83.5954 61.1069 85.4565 59.4008 85.4565 57.0744C85.3014 54.748 83.5954 53.042 81.4241 53.042Z" fill="white"/>
<path d="M120.352 90.8848C105.464 90.8848 93.3662 102.982 93.3662 117.871C93.3662 132.76 105.464 144.857 120.352 144.857C135.241 144.857 147.339 132.76 147.339 117.871C147.339 102.982 135.241 90.8848 120.352 90.8848ZM133.691 113.528L120.197 128.107C119.577 128.883 118.491 129.348 117.561 129.348C116.475 129.348 115.545 128.883 114.924 128.107L107.325 119.887C105.929 118.336 106.084 116.01 107.48 114.614C109.031 113.218 111.357 113.373 112.753 114.769L117.716 120.042L128.572 108.41C129.968 106.859 132.295 106.859 133.846 108.255C135.086 109.806 135.086 112.133 133.691 113.528Z" fill="white"/>
</svg>
